<svg width="32" height="33" viewBox="0 0 32 33" fill="none" xmlns="http://www.w3.org/2000/svg">
<path d="M25.5996 0.955078C27.297 0.955078 28.9248 1.62985 30.125 2.83008C31.3252 4.03031 32 5.65808 32 7.35547V26.5547C32 28.2521 31.3252 29.8798 30.125 31.0801C28.9248 32.2803 27.297 32.9551 25.5996 32.9551H6.40039C4.70301 32.9551 3.07523 32.2803 1.875 31.0801C0.674767 29.8798 0 28.2521 0 26.5547V7.35547C0 5.65808 0.674767 4.03031 1.875 2.83008C3.07523 1.62985 4.70301 0.955078 6.40039 0.955078H25.5996ZM5.32812 10.2822V23.5469C9.24854 23.5469 12.5591 23.9788 14.5283 22.9072H14.5117C15.1172 22.5687 15.6129 22.0636 15.9404 21.4521C16.268 20.8404 16.4132 20.1469 16.3594 19.4551C16.3054 18.7634 16.0549 18.1014 15.6367 17.5479C15.2185 16.9944 14.6506 16.5719 14 16.3311C14.7057 15.984 15.2586 15.3892 15.5537 14.6602C15.8489 13.9309 15.8655 13.1183 15.5996 12.3779C15.0875 10.683 13.1839 10.2822 11.584 10.2822H5.32812ZM26.7354 18.8271C26.7352 15.3073 24.4313 12.8113 20.7998 13.5957C19.547 13.9145 18.4682 14.7101 17.793 15.8125C17.1177 16.915 16.8992 18.238 17.1846 19.499C17.2333 20.0005 17.374 20.4889 17.5996 20.9395C17.9666 21.6153 18.4849 22.1973 19.1133 22.6406C19.7417 23.0839 20.4638 23.377 21.2236 23.4961C21.9834 23.6151 22.7603 23.557 23.4941 23.3271C24.2281 23.0973 24.8999 22.7011 25.4561 22.1699C25.8717 21.6588 26.1966 21.0801 26.416 20.459C26.4488 20.3474 26.3203 20.3467 26.3203 20.3467H24.2393C24.1916 20.3471 24.1113 20.4443 24.1113 20.4443C23.8379 20.9084 23.4172 21.2677 22.916 21.4648C22.4146 21.662 21.8612 21.6859 21.3447 21.5322C20.3667 21.3878 19.9352 20.3947 19.7432 19.4512C19.712 19.2264 19.8732 19.1309 20.0488 19.1309H26.4316C26.4728 19.1362 26.5154 19.1325 26.5547 19.1191C26.5938 19.1058 26.6289 19.083 26.6582 19.0537C26.6875 19.0245 26.7103 18.9893 26.7236 18.9502C26.737 18.9109 26.7407 18.8683 26.7354 18.8271ZM10.1797 17.2471C11.4264 17.247 12.2059 17.1385 12.7998 17.8389C12.9623 18.0463 13.078 18.2868 13.1396 18.543C13.2013 18.7992 13.2076 19.0656 13.1572 19.3242C13.1068 19.5829 13.001 19.8277 12.8477 20.042C12.6944 20.2562 12.497 20.4352 12.2686 20.5664C11.9328 20.7077 11.5722 20.7823 11.208 20.7852H8.18359C8.02781 20.7852 7.96582 20.7848 7.96582 20.583V17.4648C7.96582 17.3091 7.9656 17.2471 8.16895 17.2471H10.1797ZM21.9072 15.4746C22.229 15.4563 22.5524 15.4916 22.8643 15.5781H22.8477C23.0538 15.6359 23.2445 15.7395 23.4053 15.8809C23.566 16.0223 23.6928 16.1984 23.7764 16.3955C23.917 16.6629 23.9982 16.9572 24.0166 17.2588C24.033 17.4999 24.0328 17.5 23.8408 17.5H19.9502C19.7418 17.5 19.7412 17.4666 19.7412 17.291C19.7748 17.0498 19.8469 16.8174 19.9512 16.6006C20.0401 16.3975 20.158 16.2119 20.3096 16.0615C20.3388 16.0284 20.3682 15.9954 20.3994 15.9639C20.4325 15.9423 20.4662 15.9216 20.5 15.9014C20.7839 15.6965 21.0657 15.608 21.3672 15.5498C21.4382 15.5333 21.5098 15.5192 21.582 15.5078C21.6899 15.4908 21.7987 15.4798 21.9072 15.4746ZM8.16895 12.2266C9.91336 12.2266 11.3312 12.1239 12.0352 12.5391C12.7407 12.9526 12.7707 13.5237 12.7822 13.6943C12.7937 13.865 12.7879 14.1098 12.46 14.7051C12.1315 15.3004 10.6634 15.3125 9.60352 15.3125H8.2002C8.02791 15.3125 7.96584 15.2497 7.96582 15.0791V12.4453C7.96582 12.2894 7.96549 12.2266 8.16895 12.2266ZM19.4727 10.9707C19.3284 10.9707 19.3281 11.0194 19.3281 11.1455V12.1875C19.3281 12.4107 19.328 12.4111 19.5527 12.4111H24.5762C24.6613 12.411 24.6562 12.3154 24.6562 12.3154V10.9707H19.4727Z" fill="white"/>
</svg>
