<svg width="24" height="25" viewBox="0 0 24 25" fill="none" xmlns="http://www.w3.org/2000/svg">
<path fill-rule="evenodd" clip-rule="evenodd" d="M19.0299 8.42539C19.1704 8.56602 19.2492 8.75664 19.2492 8.95539C19.2492 9.15415 19.1704 9.34477 19.0299 9.48539L11.0299 17.4854C10.8893 17.6258 10.6987 17.7047 10.4999 17.7047C10.3012 17.7047 10.1105 17.6258 9.96991 17.4854L5.46991 12.9854C5.39622 12.9167 5.33712 12.8339 5.29613 12.7419C5.25514 12.6499 5.23309 12.5506 5.23132 12.4499C5.22954 12.3492 5.24807 12.2492 5.28579 12.1558C5.32351 12.0624 5.37965 11.9776 5.45087 11.9064C5.52209 11.8351 5.60692 11.779 5.70031 11.7413C5.7937 11.7036 5.89373 11.685 5.99443 11.6868C6.09513 11.6886 6.19445 11.7106 6.28645 11.7516C6.37845 11.7926 6.46125 11.8517 6.52991 11.9254L10.4999 15.8954L17.9699 8.42539C18.1105 8.28494 18.3012 8.20605 18.4999 8.20605C18.6987 8.20605 18.8893 8.28494 19.0299 8.42539Z" fill="#0AE98A"/>
</svg>
