<svg width="40" height="40" viewBox="0 0 40 40" fill="none" xmlns="http://www.w3.org/2000/svg">
<path d="M26.6667 35V31.6667C26.6667 29.8986 25.9644 28.2029 24.7141 26.9526C23.4639 25.7024 21.7682 25 20.0001 25H8.33341C6.5653 25 4.86961 25.7024 3.61937 26.9526C2.36913 28.2029 1.66675 29.8986 1.66675 31.6667V35" stroke="#10B982" stroke-width="2.5" stroke-linecap="round" stroke-linejoin="round"/>
<path d="M14.1667 18.3333C17.8486 18.3333 20.8333 15.3486 20.8333 11.6667C20.8333 7.98477 17.8486 5 14.1667 5C10.4848 5 7.5 7.98477 7.5 11.6667C7.5 15.3486 10.4848 18.3333 14.1667 18.3333Z" stroke="#10B982" stroke-width="2.5" stroke-linecap="round" stroke-linejoin="round"/>
<path d="M28.3333 18.3333L31.6666 21.6667L38.3333 15" stroke="#10B982" stroke-width="2.5" stroke-linecap="round" stroke-linejoin="round"/>
</svg>
