<svg width="25" height="25" viewBox="0 0 25 25" fill="none" xmlns="http://www.w3.org/2000/svg">
<path d="M3.5 18.9553V12.9553C3.5 10.5684 4.44821 8.27919 6.13604 6.59136C7.82387 4.90353 10.1131 3.95532 12.5 3.95532C14.8869 3.95532 17.1761 4.90353 18.864 6.59136C20.5518 8.27919 21.5 10.5684 21.5 12.9553V18.9553" stroke="#0AE98A" stroke-width="2" stroke-linecap="round" stroke-linejoin="round"/>
<path d="M21.5 19.9553C21.5 20.4858 21.2893 20.9945 20.9142 21.3695C20.5391 21.7446 20.0304 21.9553 19.5 21.9553H18.5C17.9696 21.9553 17.4609 21.7446 17.0858 21.3695C16.7107 20.9945 16.5 20.4858 16.5 19.9553V16.9553C16.5 16.4249 16.7107 15.9162 17.0858 15.5411C17.4609 15.166 17.9696 14.9553 18.5 14.9553H21.5V19.9553ZM3.5 19.9553C3.5 20.4858 3.71071 20.9945 4.08579 21.3695C4.46086 21.7446 4.96957 21.9553 5.5 21.9553H6.5C7.03043 21.9553 7.53914 21.7446 7.91421 21.3695C8.28929 20.9945 8.5 20.4858 8.5 19.9553V16.9553C8.5 16.4249 8.28929 15.9162 7.91421 15.5411C7.53914 15.166 7.03043 14.9553 6.5 14.9553H3.5V19.9553Z" stroke="#0AE98A" stroke-width="2" stroke-linecap="round" stroke-linejoin="round"/>
</svg>
