<svg width="89" height="42" viewBox="0 0 89 42" fill="none" xmlns="http://www.w3.org/2000/svg">
<path d="M8 27.8763L16.4211 19.4552L8 11.0342" stroke="#2776EC" stroke-width="3.15789" stroke-linecap="round" stroke-linejoin="round"/>
<path d="M33.0105 28.1235C31.6491 28.1235 30.407 27.8358 29.2841 27.2603C28.1754 26.6849 27.2912 25.8358 26.6315 24.713C25.9859 23.5761 25.6631 22.2077 25.6631 20.6077C25.6631 18.9937 25.9929 17.6182 26.6526 16.4814C27.3122 15.3446 28.1964 14.4884 29.3052 13.913C30.428 13.3375 31.6631 13.0498 33.0105 13.0498C34.1613 13.0498 35.214 13.2674 36.1684 13.7024C37.1368 14.1375 37.9227 14.7481 38.5263 15.534C39.1298 16.306 39.4947 17.1902 39.621 18.1867H36.7157C36.6455 17.6533 36.435 17.1831 36.0841 16.7761C35.7333 16.3551 35.2841 16.0323 34.7368 15.8077C34.2034 15.5691 33.614 15.4498 32.9684 15.4498C32.0982 15.4498 31.3192 15.6533 30.6315 16.0603C29.9578 16.4533 29.4245 17.0358 29.0315 17.8077C28.6526 18.5656 28.4631 19.4919 28.4631 20.5867C28.4631 21.6814 28.6526 22.6147 29.0315 23.3867C29.4245 24.1446 29.9578 24.727 30.6315 25.134C31.3192 25.527 32.1052 25.7235 32.9894 25.7235C33.635 25.7235 34.2315 25.6112 34.7789 25.3867C35.3403 25.1481 35.7964 24.8253 36.1473 24.4182C36.4982 23.9972 36.7087 23.52 36.7789 22.9867H39.5789C39.4806 23.9831 39.1368 24.8744 38.5473 25.6603C37.9578 26.4323 37.1789 27.0358 36.2105 27.4709C35.2561 27.906 34.1894 28.1235 33.0105 28.1235ZM47.6078 28.1235C46.457 28.1235 45.4605 27.913 44.6184 27.4919C43.7903 27.0709 43.1377 26.4814 42.6605 25.7235C42.1973 24.9516 41.9377 24.0463 41.8815 23.0077H44.5552C44.6394 23.8498 44.9341 24.5165 45.4394 25.0077C45.9587 25.4849 46.6815 25.7235 47.6078 25.7235C48.4219 25.7235 49.0675 25.5551 49.5447 25.2182C50.0219 24.8814 50.2605 24.3972 50.2605 23.7656C50.2605 23.3165 50.1201 22.9586 49.8394 22.6919C49.5727 22.4253 49.2289 22.2217 48.8078 22.0814C48.3868 21.927 47.8184 21.7656 47.1026 21.5972C46.092 21.3586 45.264 21.113 44.6184 20.8603C43.9868 20.5937 43.4394 20.1726 42.9763 19.5972C42.5271 19.0077 42.3026 18.2077 42.3026 17.1972C42.3026 16.3831 42.5201 15.6674 42.9552 15.0498C43.3903 14.4182 43.9938 13.927 44.7657 13.5761C45.5377 13.2253 46.4219 13.0498 47.4184 13.0498C48.4289 13.0498 49.3341 13.2393 50.1341 13.6182C50.9341 13.9831 51.5587 14.5095 52.0078 15.1972C52.457 15.8849 52.7026 16.6849 52.7447 17.5972H50.1131C50.0429 16.9516 49.7692 16.4323 49.292 16.0393C48.8148 15.6463 48.1903 15.4498 47.4184 15.4498C46.6885 15.4498 46.1061 15.6112 45.671 15.934C45.2499 16.2428 45.0394 16.6638 45.0394 17.1972C45.0394 17.6323 45.1798 17.9902 45.4605 18.2709C45.7412 18.5375 46.092 18.741 46.5131 18.8814C46.9341 19.0217 47.5026 19.1691 48.2184 19.3235C49.2429 19.5481 50.071 19.7867 50.7026 20.0393C51.3482 20.2919 51.9026 20.713 52.3657 21.3024C52.8289 21.8919 53.0605 22.6989 53.0605 23.7235C53.0605 24.6217 52.8289 25.4007 52.3657 26.0603C51.9166 26.72 51.278 27.2323 50.4499 27.5972C49.6359 27.9481 48.6885 28.1235 47.6078 28.1235ZM61.1144 28.1235C59.9635 28.1235 58.967 27.913 58.1249 27.4919C57.2969 27.0709 56.6442 26.4814 56.167 25.7235C55.7039 24.9516 55.4442 24.0463 55.3881 23.0077H58.0618C58.146 23.8498 58.4407 24.5165 58.946 25.0077C59.4653 25.4849 60.1881 25.7235 61.1144 25.7235C61.9284 25.7235 62.5741 25.5551 63.0513 25.2182C63.5284 24.8814 63.767 24.3972 63.767 23.7656C63.767 23.3165 63.6267 22.9586 63.346 22.6919C63.0793 22.4253 62.7355 22.2217 62.3144 22.0814C61.8934 21.927 61.3249 21.7656 60.6091 21.5972C59.5986 21.3586 58.7705 21.113 58.1249 20.8603C57.4934 20.5937 56.946 20.1726 56.4828 19.5972C56.0337 19.0077 55.8091 18.2077 55.8091 17.1972C55.8091 16.3831 56.0267 15.6674 56.4618 15.0498C56.8969 14.4182 57.5004 13.927 58.2723 13.5761C59.0442 13.2253 59.9284 13.0498 60.9249 13.0498C61.9355 13.0498 62.8407 13.2393 63.6407 13.6182C64.4407 13.9831 65.0653 14.5095 65.5144 15.1972C65.9635 15.8849 66.2091 16.6849 66.2513 17.5972H63.6197C63.5495 16.9516 63.2758 16.4323 62.7986 16.0393C62.3214 15.6463 61.6969 15.4498 60.9249 15.4498C60.1951 15.4498 59.6127 15.6112 59.1776 15.934C58.7565 16.2428 58.546 16.6638 58.546 17.1972C58.546 17.6323 58.6863 17.9902 58.967 18.2709C59.2477 18.5375 59.5986 18.741 60.0197 18.8814C60.4407 19.0217 61.0091 19.1691 61.7249 19.3235C62.7495 19.5481 63.5776 19.7867 64.2091 20.0393C64.8548 20.2919 65.4091 20.713 65.8723 21.3024C66.3355 21.8919 66.567 22.6989 66.567 23.7235C66.567 24.6217 66.3355 25.4007 65.8723 26.0603C65.4232 26.72 64.7846 27.2323 63.9565 27.5972C63.1425 27.9481 62.1951 28.1235 61.1144 28.1235ZM74.2841 28.1235C73.2736 28.1235 72.3543 27.927 71.5263 27.534C70.6982 27.141 70.0385 26.5867 69.5473 25.8709C69.0701 25.141 68.8315 24.2849 68.8315 23.3024H71.5263C71.5263 23.8077 71.6455 24.2428 71.8841 24.6077C72.1368 24.9726 72.4736 25.2533 72.8947 25.4498C73.3157 25.6323 73.7859 25.7235 74.3052 25.7235C74.8526 25.7235 75.3227 25.6393 75.7157 25.4709C76.1227 25.2884 76.4315 25.0358 76.642 24.713C76.8666 24.3761 76.9789 23.9831 76.9789 23.534C76.9789 22.8884 76.7403 22.3902 76.2631 22.0393C75.7859 21.6884 75.1333 21.513 74.3052 21.513H72.9789V19.1972H74.2631C74.6982 19.1972 75.0771 19.12 75.3999 18.9656C75.7227 18.7972 75.9754 18.5726 76.1578 18.2919C76.3403 17.9972 76.4315 17.6603 76.4315 17.2814C76.4315 16.72 76.221 16.2779 75.7999 15.9551C75.3929 15.6182 74.8385 15.4498 74.1368 15.4498C73.435 15.4498 72.8736 15.6463 72.4526 16.0393C72.0315 16.4182 71.814 16.9516 71.7999 17.6393H69.1684C69.1824 16.727 69.3999 15.927 69.821 15.2393C70.2561 14.5516 70.8526 14.0182 71.6105 13.6393C72.3684 13.2463 73.2315 13.0498 74.1999 13.0498C75.1403 13.0498 75.9824 13.2182 76.7263 13.5551C77.4841 13.8919 78.0736 14.3621 78.4947 14.9656C78.9298 15.5691 79.1473 16.2498 79.1473 17.0077C79.1473 17.6814 78.9719 18.313 78.621 18.9024C78.2701 19.4779 77.821 19.906 77.2736 20.1867C78.0175 20.4533 78.614 20.8744 79.0631 21.4498C79.5122 22.0253 79.7368 22.734 79.7368 23.5761C79.7368 24.4884 79.4982 25.2884 79.021 25.9761C78.5438 26.6639 77.8912 27.1972 77.0631 27.5761C76.235 27.941 75.3087 28.1235 74.2841 28.1235Z" fill="#2776EC"/>
<path d="M22.7368 37.9551H78.7368" stroke="#2776EC" stroke-width="3.15789" stroke-linecap="round" stroke-linejoin="round"/>
</svg>
