<svg width="25" height="25" viewBox="0 0 25 25" fill="none" xmlns="http://www.w3.org/2000/svg">
<path d="M21.94 12.0054L12.75 21.1954C11.6242 22.3212 10.0972 22.9537 8.50505 22.9537C6.91286 22.9537 5.38589 22.3212 4.26005 21.1954C3.1342 20.0695 2.50171 18.5425 2.50171 16.9504C2.50171 15.3582 3.1342 13.8312 4.26005 12.7054L13.45 3.51536C14.2006 2.7648 15.2186 2.34314 16.28 2.34314C17.3415 2.34314 18.3595 2.7648 19.11 3.51536C19.8606 4.26593 20.2823 5.28391 20.2823 6.34536C20.2823 7.40682 19.8606 8.4248 19.11 9.17536L9.91005 18.3654C9.53476 18.7406 9.02577 18.9515 8.49505 18.9515C7.96432 18.9515 7.45533 18.7406 7.08005 18.3654C6.70476 17.9901 6.49393 17.4811 6.49393 16.9504C6.49393 16.4196 6.70476 15.9106 7.08005 15.5354L15.57 7.05536" stroke="#0AE98A" stroke-width="2" stroke-linecap="round" stroke-linejoin="round"/>
</svg>
