<svg width="32" height="33" viewBox="0 0 32 33" fill="none" xmlns="http://www.w3.org/2000/svg">
<rect y="0.955078" width="32" height="32" rx="4.66667" fill="white"/>
<path d="M15.9999 27.5969C10.1166 27.5969 5.33325 22.8219 5.33325 16.9469C5.33325 11.0636 10.1166 6.28857 15.9999 6.28857C21.8833 6.28857 26.6666 11.0636 26.6666 16.9386C26.6666 22.8136 21.8833 27.5969 15.9999 27.5969ZM24.9916 18.3969C24.6833 18.2969 22.1749 17.5552 19.3166 18.0052C20.5083 21.2719 20.9916 23.9386 21.0833 24.4886C23.1333 23.1136 24.5916 20.9302 24.9916 18.3969ZM19.5583 25.3302C19.4249 24.5302 18.8916 21.7469 17.6166 18.4302C17.5999 18.4386 17.5749 18.4469 17.5583 18.4469C12.4166 20.2386 10.5749 23.7969 10.4083 24.1302C11.9499 25.3302 13.8916 26.0469 15.9999 26.0469C17.2583 26.0552 18.4666 25.7969 19.5583 25.3302ZM9.23325 23.0386C9.44159 22.6886 11.9416 18.5552 16.6416 17.0302C16.7583 16.9886 16.8833 16.9552 16.9999 16.9219C16.7749 16.4052 16.5249 15.8886 16.2583 15.3802C11.7083 16.7386 7.29159 16.6802 6.89159 16.6719C6.89159 16.7636 6.88325 16.8552 6.88325 16.9469C6.89159 19.2886 7.77492 21.4219 9.23325 23.0386ZM7.08325 15.0886C7.49159 15.0969 11.2416 15.1136 15.5083 13.9802C13.9999 11.2969 12.3666 9.04691 12.1333 8.72191C9.57492 9.92191 7.67492 12.2719 7.08325 15.0886ZM13.8666 8.10524C14.1166 8.43857 15.7749 10.6886 17.2666 13.4302C20.5083 12.2136 21.8749 10.3802 22.0416 10.1469C20.4333 8.72191 18.3166 7.85524 15.9999 7.85524C15.2666 7.85524 14.5499 7.94691 13.8666 8.10524ZM23.0499 11.1969C22.8583 11.4552 21.3333 13.4136 17.9666 14.7886C18.1749 15.2219 18.3833 15.6636 18.5749 16.1052C18.6416 16.2636 18.7083 16.4219 18.7749 16.5719C21.8083 16.1886 24.8166 16.8052 25.1166 16.8636C25.0916 14.7219 24.3249 12.7469 23.0499 11.1969Z" fill="#0B0B0B"/>
</svg>
