<svg width="32" height="49" viewBox="0 0 32 49" fill="none" xmlns="http://www.w3.org/2000/svg">
<path d="M8.00024 48.4552C12.4283 48.4552 16.0005 44.8832 16.0005 40.4554V32.4556H8.00024C3.5722 32.4556 0 36.0276 0 40.4554C0 44.8832 3.5722 48.4552 8.00024 48.4552Z" fill="#0ACF83"/>
<path d="M0 24.4535C0 20.0256 3.5722 16.4536 8.00024 16.4536H16.0005V32.4533H8.00024C3.5722 32.4533 0 28.8813 0 24.4535Z" fill="#A259FF"/>
<path d="M0 8.45492C0 4.0271 3.5722 0.455078 8.00024 0.455078H16.0005V16.4548H8.00024C3.5722 16.4548 0 12.8827 0 8.45492Z" fill="#F24E1E"/>
<path d="M15.9995 0.455078H23.9998C28.4278 0.455078 32 4.0271 32 8.45492C32 12.8827 28.4278 16.4548 23.9998 16.4548H15.9995V0.455078Z" fill="#FF7262"/>
<path d="M32 24.4535C32 28.8813 28.4278 32.4533 23.9998 32.4533C19.5717 32.4533 15.9995 28.8813 15.9995 24.4535C15.9995 20.0256 19.5717 16.4536 23.9998 16.4536C28.4278 16.4536 32 20.0256 32 24.4535Z" fill="#1ABCFE"/>
</svg>
