<svg width="49" height="49" viewBox="0 0 49 49" fill="none" xmlns="http://www.w3.org/2000/svg">
<path d="M46.3491 3.58471C44.5873 1.82286 42.4675 0.942736 39.9897 0.944338H9.98935C7.50995 0.944338 5.39012 1.82446 3.62988 3.58471C1.86803 5.34656 0.987902 7.46639 0.989504 9.94419V39.9445C0.989504 42.4239 1.86963 44.5437 3.62988 46.304C5.39173 48.0658 7.51155 48.9459 9.98935 48.9443H16.9903C17.4468 48.9443 17.7903 48.9283 18.021 48.8963C18.2896 48.8432 18.532 48.7 18.7081 48.4903C18.9371 48.25 19.0517 47.9016 19.0517 47.4452L19.0349 45.3189C19.0252 43.9639 19.0204 42.8908 19.0204 42.0995L18.2997 42.2245C17.8432 42.3078 17.2658 42.3446 16.5675 42.335C15.8388 42.3211 15.1124 42.2479 14.3956 42.1164C13.6318 41.9778 12.913 41.6563 12.3006 41.1794C11.6578 40.6933 11.1784 40.0228 10.9263 39.2574L10.614 38.5366C10.3498 37.9686 10.0191 37.4339 9.62897 36.9437C9.1805 36.3607 8.72723 35.9651 8.26915 35.7569L8.05292 35.6007C7.90277 35.492 7.76572 35.3662 7.64449 35.2259C7.5287 35.0956 7.43387 34.9481 7.3634 34.7887C7.30093 34.6413 7.35299 34.5212 7.51956 34.4283C7.68614 34.3322 7.98885 34.2849 8.42771 34.2865L9.05237 34.3826C9.46881 34.4643 9.98375 34.7134 10.5972 35.1298C11.2172 35.5525 11.7351 36.1082 12.1132 36.7563C12.5937 37.6084 13.1719 38.2595 13.8478 38.7096C14.5253 39.1581 15.2076 39.3823 15.8948 39.3823C16.5819 39.3823 17.1761 39.3302 17.6774 39.2261C18.1629 39.1255 18.6348 38.9674 19.0829 38.7552C19.2703 37.3602 19.7804 36.287 20.6133 35.5359C19.5332 35.4291 18.4626 35.2412 17.4107 34.9737C16.3843 34.692 15.3971 34.2828 14.4725 33.7556C13.5048 33.2288 12.6502 32.517 11.957 31.6606C11.2907 30.8277 10.7437 29.7346 10.3161 28.3811C9.89005 27.0261 9.67703 25.4629 9.67703 23.6914C9.67703 21.172 10.4995 19.0257 12.1444 17.2527C11.3756 15.3579 11.4485 13.234 12.363 10.8812C12.9685 10.6922 13.8646 10.8323 15.0515 11.3016C16.2383 11.7709 17.108 12.1713 17.6606 12.5029C18.2132 12.8392 18.6561 13.1211 18.9892 13.3486C20.9422 12.804 22.9608 12.5308 24.9883 12.5365C27.0513 12.5365 29.0518 12.8072 30.9898 13.3486L32.1766 12.599C33.0896 12.0509 34.0525 11.5907 35.0525 11.2247C36.156 10.8083 37.0001 10.6938 37.5847 10.8812C38.5217 13.2356 38.6042 15.3603 37.8322 17.2551C39.4787 19.0249 40.302 21.1712 40.302 23.6938C40.302 25.4653 40.0882 27.0325 39.6605 28.3956C39.2345 29.7602 38.6827 30.8541 38.0052 31.6774C37.2978 32.5208 36.44 33.2255 35.4753 33.7556C34.4663 34.3178 33.4868 34.7238 32.537 34.9737C31.4852 35.242 30.4146 35.4307 29.3345 35.5383C30.4156 36.4752 30.957 37.9536 30.9586 39.9733V47.4452C30.9586 47.7975 31.0106 48.0834 31.1147 48.3029C31.1633 48.4082 31.2326 48.5027 31.3185 48.5807C31.4043 48.6587 31.505 48.7186 31.6145 48.7569C31.8435 48.8402 32.0469 48.8915 32.2247 48.9107C32.4025 48.9331 32.6572 48.9435 32.9887 48.9419H39.9897C42.4691 48.9419 44.5889 48.0618 46.3491 46.3016C48.1094 44.5413 48.9895 42.4215 48.9895 39.9421V9.94419C48.9895 7.46478 48.111 5.34496 46.3491 3.58471Z" fill="white"/>
</svg>
