<svg width="54" height="41" viewBox="0 0 54 41" fill="none" xmlns="http://www.w3.org/2000/svg">
<path d="M4.13521 40.9553H12.6175V20.3555L0.5 11.2676V37.3201C0.5 39.3315 2.12992 40.9553 4.13521 40.9553Z" fill="#4285F4"/>
<path d="M41.7012 40.9507H50.1838C52.1952 40.9507 53.819 39.3208 53.819 37.3155V11.2627L41.7012 20.3508" fill="#34A853"/>
<path d="M41.7012 4.60084V20.3536L53.819 11.2657V6.41814C53.819 1.92272 48.6871 -0.64023 45.0943 2.05601" fill="#FBBC04"/>
<path d="M12.6167 20.3531V4.60063L27.1578 15.5058L41.6989 4.6001V20.3529L27.1578 31.2589" fill="#EA4335"/>
<path d="M0.5 6.41814V11.2652L12.6175 20.3533V4.60083L9.22465 2.05601C5.6257 -0.64023 0.5 1.92272 0.5 6.41814Z" fill="#C5221F"/>
</svg>
