<svg width="20" height="21" viewBox="0 0 20 21" fill="none" xmlns="http://www.w3.org/2000/svg">
<path d="M10.0057 5.69532C10.9435 4.88221 12.1549 4.45528 13.3953 4.50075C14.6356 4.54623 15.8125 5.06072 16.6882 5.94032C17.1653 6.41983 17.5387 6.99226 17.7853 7.6221C18.0318 8.25194 18.1463 8.92573 18.1216 9.60166C18.0969 10.2776 17.9336 10.9412 17.6417 11.5514C17.3498 12.1616 16.9357 12.7052 16.4249 13.1487L10.9541 17.8903C10.4066 18.3653 9.59325 18.3653 9.04574 17.8903L3.57408 13.1487C3.06338 12.7052 2.64928 12.1615 2.35747 11.5513C2.06567 10.9411 1.9024 10.2774 1.87778 9.60148C1.85317 8.92555 1.96774 8.25177 2.21438 7.62197C2.46103 6.99216 2.83449 6.41977 3.31158 5.94032C4.18733 5.06048 5.36439 4.54584 6.60495 4.50036C7.84551 4.45489 9.05709 4.88197 9.99491 5.69532L9.99991 5.70032L10.0057 5.69532Z" fill="#0AE98A"/>
</svg>
