<svg width="106" height="49" viewBox="0 0 106 49" fill="none" xmlns="http://www.w3.org/2000/svg">
<path d="M8 26.8763L16.4211 18.4552L8 10.0342" stroke="#FF9D00" stroke-width="3.15789" stroke-linecap="round" stroke-linejoin="round"/>
<path d="M35.7052 12.2182H38.4841V26.9551H35.7052V12.2182ZM26.3789 12.2182H29.0947V26.9551H26.3789V12.2182ZM28.821 18.1972H36.042V20.6182H28.821V18.1972ZM45.5305 14.6182H41.0674V12.2182H52.7726V14.6182H48.2884V26.9551H45.5305V14.6182ZM55.3452 12.2182H58.5452L63.0083 23.1024L67.4715 12.2182H70.6715V26.9551H68.061V17.1867L64.061 26.9551H61.9557L57.9346 17.1867V26.9551H55.3452V12.2182ZM74.5672 12.2182H77.3462V24.5551H84.2304V26.9551H74.5672V12.2182ZM91.0762 27.1235C90.1359 27.1235 89.2727 26.934 88.4868 26.5551C87.7148 26.1621 87.0973 25.6288 86.6341 24.9551C86.171 24.2674 85.9113 23.4884 85.8552 22.6182H88.4868C88.571 23.2919 88.8377 23.8112 89.2868 24.1761C89.7359 24.541 90.3254 24.7235 91.0552 24.7235C91.6026 24.7235 92.0798 24.6182 92.4868 24.4077C92.9078 24.1831 93.2306 23.8674 93.4552 23.4603C93.6938 23.0533 93.8131 22.5831 93.8131 22.0498C93.8131 21.2217 93.5605 20.5621 93.0552 20.0709C92.5499 19.5796 91.8762 19.334 91.0341 19.334C90.4306 19.334 89.9113 19.4463 89.4762 19.6709C89.0552 19.8954 88.7324 20.2182 88.5078 20.6393H86.1289L87.3289 12.2182H95.6026V14.6182H89.392L88.8868 17.9446C89.2096 17.6498 89.6026 17.4253 90.0657 17.2709C90.5429 17.1165 91.0833 17.0393 91.6868 17.0393C92.5991 17.0393 93.4271 17.2568 94.171 17.6919C94.9289 18.113 95.5254 18.7095 95.9605 19.4814C96.3955 20.2393 96.6131 21.0954 96.6131 22.0498C96.6131 23.0182 96.3675 23.8884 95.8763 24.6603C95.3991 25.4323 94.7394 26.0358 93.8973 26.4709C93.0552 26.906 92.1148 27.1235 91.0762 27.1235Z" fill="#FF9D00"/>
<path d="M22.7368 35.9551H95.7368" stroke="#FF9D00" stroke-width="3.15789" stroke-linecap="round" stroke-linejoin="round"/>
</svg>
