<svg width="32" height="33" viewBox="0 0 32 33" fill="none" xmlns="http://www.w3.org/2000/svg">
<rect y="0.955078" width="32" height="32" rx="4.66667" fill="white"/>
<path d="M20.2234 6.28857C23.7951 6.28875 26.7174 9.21102 26.7175 12.7827V21.4419C26.7175 25.0137 23.7952 27.9368 20.2234 27.937H11.5642C7.99226 27.937 5.06909 25.0138 5.06909 21.4419V12.7827C5.06926 9.21091 7.99236 6.28857 11.5642 6.28857H20.2234ZM11.5642 8.34521C9.18301 8.34521 7.1259 10.2933 7.12573 12.7827V21.4419C7.12573 23.8232 9.07467 25.8804 11.5642 25.8804H20.2234C22.6045 25.8802 24.6609 23.9313 24.6609 21.4419V12.7827C24.6607 10.4017 22.7127 8.3454 20.2234 8.34521H11.5642ZM15.8933 11.9165C18.924 11.9165 21.3052 14.2978 21.197 17.2202C21.197 20.1427 18.8158 22.5239 15.8933 22.5239C12.9708 22.5239 10.5896 20.1427 10.5896 17.2202C10.5897 14.2978 12.9709 11.9165 15.8933 11.9165ZM15.8933 13.7563C13.945 13.7564 12.4295 15.3802 12.4294 17.2202C12.4294 19.1685 14.0532 20.6841 15.8933 20.6841C17.8416 20.6841 19.3572 19.1686 19.3572 17.2202C19.3571 15.272 17.7334 13.7563 15.8933 13.7563ZM21.6296 10.2935C22.2791 10.2935 22.8212 10.8346 22.9294 11.5923C22.9292 12.3497 22.3872 12.8911 21.6296 12.8911C20.8723 12.8909 20.331 12.3496 20.3308 11.5923C20.3308 10.8348 20.9803 10.2937 21.6296 10.2935Z" fill="#0B0B0B"/>
</svg>
