<svg width="160" height="49" viewBox="0 0 160 49" fill="none" xmlns="http://www.w3.org/2000/svg">
<path d="M8 26.8499L16.4211 18.4289L8 10.0078" stroke="#EEFF00" stroke-width="3.15789" stroke-linecap="round" stroke-linejoin="round"/>
<path d="M25.1157 24.5551H26.7157C27.221 24.5551 27.5789 24.4007 27.7894 24.0919C28.014 23.7831 28.1263 23.2989 28.1263 22.6393V12.2182H30.9052V22.7446C30.9052 24.134 30.5824 25.1867 29.9368 25.9024C29.3052 26.6042 28.3999 26.9551 27.221 26.9551H25.1157V24.5551ZM38.6904 12.2182H41.3009L46.9641 26.9551H44.1009L39.9957 15.7761L35.8904 26.9551H33.0062L38.6904 12.2182ZM36.3325 21.1656H43.6588L43.8483 23.5235H36.143L36.3325 21.1656ZM46.6376 12.2182H49.4376L53.3744 23.5235L57.3113 12.2182H60.1113L54.7218 26.9551H52.0271L46.6376 12.2182ZM65.4568 12.2182H68.0674L73.7305 26.9551H70.8674L66.7621 15.7761L62.6568 26.9551H59.7726L65.4568 12.2182ZM63.0989 21.1656H70.4253L70.6147 23.5235H62.9095L63.0989 21.1656ZM80.6851 27.1235C79.5343 27.1235 78.5378 26.913 77.6957 26.4919C76.8676 26.0709 76.215 25.4814 75.7378 24.7235C75.2746 23.9516 75.015 23.0463 74.9588 22.0077H77.6325C77.7167 22.8498 78.0115 23.5165 78.5167 24.0077C79.036 24.4849 79.7588 24.7235 80.6851 24.7235C81.4992 24.7235 82.1448 24.5551 82.622 24.2182C83.0992 23.8814 83.3378 23.3972 83.3378 22.7656C83.3378 22.3165 83.1974 21.9586 82.9167 21.6919C82.65 21.4253 82.3062 21.2217 81.8851 21.0814C81.4641 20.927 80.8957 20.7656 80.1799 20.5972C79.1693 20.3586 78.3413 20.113 77.6957 19.8603C77.0641 19.5937 76.5167 19.1726 76.0536 18.5972C75.6044 18.0077 75.3799 17.2077 75.3799 16.1972C75.3799 15.3831 75.5974 14.6674 76.0325 14.0498C76.4676 13.4182 77.0711 12.927 77.843 12.5761C78.615 12.2253 79.4992 12.0498 80.4957 12.0498C81.5062 12.0498 82.4115 12.2393 83.2115 12.6182C84.0115 12.9831 84.636 13.5095 85.0851 14.1972C85.5343 14.8849 85.7799 15.6849 85.822 16.5972H83.1904C83.1202 15.9516 82.8465 15.4323 82.3693 15.0393C81.8922 14.6463 81.2676 14.4498 80.4957 14.4498C79.7658 14.4498 79.1834 14.6112 78.7483 14.934C78.3272 15.2428 78.1167 15.6638 78.1167 16.1972C78.1167 16.6323 78.2571 16.9902 78.5378 17.2709C78.8185 17.5375 79.1693 17.741 79.5904 17.8814C80.0115 18.0217 80.5799 18.1691 81.2957 18.3235C82.3202 18.5481 83.1483 18.7867 83.7799 19.0393C84.4255 19.2919 84.9799 19.713 85.443 20.3024C85.9062 20.8919 86.1378 21.6989 86.1378 22.7235C86.1378 23.6217 85.9062 24.4007 85.443 25.0603C84.9939 25.72 84.3553 26.2323 83.5272 26.5972C82.7132 26.9481 81.7658 27.1235 80.6851 27.1235ZM95.897 27.1235C94.5356 27.1235 93.2935 26.8358 92.1707 26.2603C91.0619 25.6849 90.1777 24.8358 89.518 23.713C88.8724 22.5761 88.5496 21.2077 88.5496 19.6077C88.5496 17.9937 88.8794 16.6182 89.5391 15.4814C90.1987 14.3446 91.0829 13.4884 92.1917 12.913C93.3145 12.3375 94.5496 12.0498 95.897 12.0498C97.0479 12.0498 98.1005 12.2674 99.0549 12.7024C100.023 13.1375 100.809 13.7481 101.413 14.534C102.016 15.306 102.381 16.1902 102.508 17.1867H99.6022C99.5321 16.6533 99.3215 16.1831 98.9707 15.7761C98.6198 15.3551 98.1707 15.0323 97.6233 14.8077C97.09 14.5691 96.5005 14.4498 95.8549 14.4498C94.9847 14.4498 94.2057 14.6533 93.518 15.0603C92.8443 15.4533 92.311 16.0358 91.918 16.8077C91.5391 17.5656 91.3496 18.4919 91.3496 19.5867C91.3496 20.6814 91.5391 21.6147 91.918 22.3867C92.311 23.1446 92.8443 23.727 93.518 24.134C94.2057 24.527 94.9917 24.7235 95.8759 24.7235C96.5215 24.7235 97.118 24.6112 97.6654 24.3867C98.2268 24.1481 98.6829 23.8253 99.0338 23.4182C99.3847 22.9972 99.5952 22.52 99.6654 21.9867H102.465C102.367 22.9831 102.023 23.8744 101.434 24.6603C100.844 25.4323 100.065 26.0358 99.097 26.4709C98.1426 26.906 97.0759 27.1235 95.897 27.1235ZM105.568 12.2182H111.589C112.6 12.2182 113.47 12.3867 114.2 12.7235C114.943 13.0603 115.512 13.5446 115.905 14.1761C116.298 14.8077 116.494 15.5586 116.494 16.4288C116.494 17.3551 116.249 18.141 115.758 18.7867C115.28 19.4182 114.621 19.8884 113.779 20.1972C112.95 20.506 112.01 20.6603 110.958 20.6603H108.347V26.9551H105.568V12.2182ZM113.484 23.334C113.442 22.7726 113.238 22.3165 112.873 21.9656C112.522 21.6007 112.073 21.4182 111.526 21.4182H107.884V19.2919H112.115C113.294 19.2919 114.256 19.6358 115 20.3235C115.743 21.0112 116.165 21.9095 116.263 23.0182L116.621 26.9551H113.842L113.484 23.334ZM111.463 19.0182C111.982 19.0182 112.41 18.92 112.747 18.7235C113.098 18.513 113.358 18.2393 113.526 17.9024C113.694 17.5516 113.779 17.1726 113.779 16.7656C113.779 16.12 113.582 15.5937 113.189 15.1867C112.81 14.7656 112.235 14.5551 111.463 14.5551H108.347V19.0182H111.463ZM120.02 12.2182H122.778V26.9551H120.02V12.2182ZM120.02 14.6182V12.2182H122.778V14.6182H120.02ZM120.02 26.9551V24.5551H122.778V26.9551H120.02ZM126.681 12.2182H132.575C133.614 12.2182 134.512 12.4147 135.27 12.8077C136.028 13.1867 136.596 13.72 136.975 14.4077C137.368 15.0954 137.565 15.8884 137.565 16.7867C137.565 17.6709 137.368 18.4638 136.975 19.1656C136.596 19.8533 136.028 20.3937 135.27 20.7867C134.512 21.1656 133.614 21.3551 132.575 21.3551H129.46V26.9551H126.681V12.2182ZM132.449 19.0182C132.968 19.0182 133.404 18.92 133.754 18.7235C134.105 18.513 134.358 18.2393 134.512 17.9024C134.681 17.5656 134.765 17.1937 134.765 16.7867C134.765 16.141 134.568 15.6077 134.175 15.1867C133.796 14.7656 133.221 14.5551 132.449 14.5551H129.46V19.0182H132.449ZM143.427 14.6182H138.964V12.2182H150.669V14.6182H146.185V26.9551H143.427V14.6182Z" fill="#EEFF00"/>
<path d="M22.7368 35.9023H150.737" stroke="#EEFF00" stroke-width="3.15789" stroke-linecap="round" stroke-linejoin="round"/>
</svg>
