<svg width="48" height="49" viewBox="0 0 48 49" fill="none" xmlns="http://www.w3.org/2000/svg">
<path d="M44.4587 0.95526H3.54096C2.61256 0.945812 1.71834 1.30505 1.05449 1.95414C0.39065 2.60323 0.0114142 3.48916 0 4.41753V45.5005C0.0134784 46.4275 0.393621 47.3114 1.05724 47.9588C1.72086 48.6062 2.61391 48.9644 3.54096 48.9549H44.4587C45.3871 48.9623 46.2808 48.6018 46.9443 47.9523C47.6078 47.3028 47.9872 46.4171 47.9996 45.4887V4.40573C47.9831 3.48008 47.6018 2.59837 46.9388 1.95226C46.2757 1.30615 45.3844 0.947855 44.4587 0.95526Z" fill="#0076B2"/>
<path d="M7.10611 18.9473H14.2313V41.8731H7.10611V18.9473ZM10.6707 7.5376C11.4879 7.5376 12.2868 7.77998 12.9662 8.23409C13.6456 8.6882 14.1751 9.33362 14.4877 10.0887C14.8003 10.8438 14.8818 11.6746 14.7221 12.4761C14.5624 13.2776 14.1686 14.0137 13.5904 14.5912C13.0123 15.1688 12.2758 15.562 11.4742 15.7209C10.6726 15.8799 9.84183 15.7975 9.08703 15.4842C8.33224 15.171 7.68732 14.6409 7.23386 13.961C6.7804 13.2811 6.53877 12.482 6.53955 11.6648C6.5406 10.5698 6.9763 9.52007 7.75092 8.74618C8.52554 7.9723 9.57571 7.5376 10.6707 7.5376ZM18.7008 18.9473H25.5309V22.0949H25.6253C26.5774 20.2929 28.8987 18.3926 32.3649 18.3926C39.5806 18.3769 40.9183 23.1257 40.9183 29.283V41.8731H33.7931V30.7191C33.7931 28.0633 33.7459 24.6444 30.0909 24.6444C26.4358 24.6444 25.8142 27.5401 25.8142 30.5459V41.8731H18.7008V18.9473Z" fill="white"/>
</svg>
