<svg width="32" height="33" viewBox="0 0 32 33" fill="none" xmlns="http://www.w3.org/2000/svg">
<rect y="0.955078" width="32" height="32" rx="4.66667" fill="white"/>
<path d="M17.3666 16.7817C17.3666 20.0951 14.6733 22.7817 11.3493 22.7817C10.5603 22.7828 9.77881 22.6284 9.04948 22.3275C8.32015 22.0265 7.65725 21.5849 7.09861 21.0277C6.53997 20.4705 6.09654 19.8088 5.79364 19.0803C5.49074 18.3518 5.3343 17.5707 5.33325 16.7817C5.33325 13.4671 8.02659 10.7817 11.3493 10.7817C12.1383 10.7805 12.92 10.9348 13.6494 11.2356C14.3789 11.5365 15.042 11.9781 15.6008 12.5353C16.1595 13.0925 16.6031 13.7543 16.9061 14.4829C17.2091 15.2115 17.3655 15.9927 17.3666 16.7817ZM23.9666 16.7817C23.9666 19.9017 22.6199 22.4297 20.9586 22.4297C19.2973 22.4297 17.9506 19.9004 17.9506 16.7817C17.9506 13.6617 19.2973 11.1337 20.9586 11.1337C22.6199 11.1337 23.9666 13.6631 23.9666 16.7817ZM26.6666 16.7817C26.6666 19.5764 26.1933 21.8417 25.6079 21.8417C25.0239 21.8417 24.5506 19.5751 24.5506 16.7817C24.5506 13.9871 25.0239 11.7217 25.6093 11.7217C26.1933 11.7217 26.6666 13.9871 26.6666 16.7817Z" fill="black"/>
</svg>
