<svg width="48" height="49" viewBox="0 0 48 49" fill="none" xmlns="http://www.w3.org/2000/svg">
<path d="M9.549 24.5049C8.61809 24.1083 8.38332 22.8962 9.09881 22.1807L14.0879 17.1916C14.428 16.8516 14.8307 16.6079 15.2962 16.4606C15.7608 16.3141 16.2309 16.296 16.7065 16.4063L16.9001 16.4467C17.9497 16.6657 18.3937 17.9214 17.7461 18.776C17.0568 19.6855 16.4565 20.5382 15.9451 21.334C15.2975 22.342 14.6503 23.5219 14.0036 24.8737C13.6668 25.5778 12.8386 25.9063 12.1205 25.6004L9.549 24.5049ZM15.6631 27.2208C15.2482 26.8059 15.1266 26.1783 15.3757 25.647C16.0698 24.167 16.8664 22.7461 17.7657 21.3845C18.8431 19.7533 20.0834 18.2353 21.4865 16.8305C23.7128 14.6042 26.1373 12.9389 28.76 11.8346C31.0046 10.8875 33.4007 10.4005 35.9483 10.3737C36.6831 10.366 37.276 10.9591 37.2681 11.6939C37.2408 14.2409 36.7539 16.637 35.8076 18.8822C34.7024 21.504 33.0367 23.9281 30.8104 26.1544C29.4123 27.5525 27.8985 28.7894 26.269 29.8651C24.9085 30.7643 23.4843 31.5641 21.9963 32.2642C21.4645 32.5145 20.8356 32.3933 20.42 31.9777L15.6631 27.2208ZM26.0064 21.6358C26.5392 22.1686 27.1705 22.4345 27.9002 22.4337C28.63 22.4345 29.2613 22.1686 29.794 21.6358C30.3268 21.103 30.5928 20.4717 30.592 19.742C30.5911 19.0122 30.3252 18.3809 29.794 17.8481C29.2629 17.3153 28.6317 17.0494 27.9002 17.0502C27.1705 17.0494 26.5392 17.3153 26.0064 17.8481C25.4736 18.3809 25.2076 19.0122 25.2085 19.742C25.2093 20.4717 25.4753 21.103 26.0064 21.6358ZM25.4305 38.5288C24.7172 39.2421 23.5093 39.0113 23.1092 38.0853L22.0033 35.5257C21.6926 34.8065 22.0206 33.9737 22.7272 33.6352C24.0773 32.9886 25.2587 32.3387 26.2715 31.6857C27.0662 31.1732 27.9154 30.5747 28.8189 29.8902C29.6791 29.2386 30.9429 29.6935 31.1517 30.7523L31.1879 30.9357C31.2982 31.4113 31.2801 31.8814 31.1336 32.346C30.9872 32.8123 30.7439 33.2155 30.4039 33.5555L25.4305 38.5288Z" fill="#0AE98A"/>
<path d="M18.9729 33.4105L14.2478 28.6854C13.895 28.3326 13.3395 28.2638 12.951 28.5768C10.1623 30.8237 9.46144 34.8208 9.45923 37.2604C9.45876 37.7837 9.87728 38.201 10.4004 38.2113C14.8397 38.2987 17.7498 36.2262 19.0666 34.6947C19.3919 34.3165 19.3256 33.7632 18.9729 33.4105Z" fill="#D5AB00"/>
<path d="M21.4874 9.79282L20.9391 11.0554L21.4874 12.3179L20.2249 11.7696L18.9623 12.3179L19.5106 11.0554L18.9623 9.79282L20.2249 10.3412L21.4874 9.79282Z" fill="#0AE98A"/>
<path d="M7.598 26.2064L7.04965 27.4689L7.598 28.7315L6.33545 28.1832L5.0729 28.7315L5.62124 27.4689L5.0729 26.2064L6.33545 26.7547L7.598 26.2064Z" fill="#0AE98A"/>
<path d="M36.6371 29.994L36.0887 31.2565L36.6371 32.5191L35.3745 31.9707L34.112 32.5191L34.6603 31.2565L34.112 29.994L35.3745 30.5423L36.6371 29.994Z" fill="#0AE98A"/>
</svg>
