<svg width="30" height="33" viewBox="0 0 30 33" fill="none" xmlns="http://www.w3.org/2000/svg">
<path fill-rule="evenodd" clip-rule="evenodd" d="M22.25 22.574C21.9937 22.574 21.7399 22.6249 21.5031 22.7239C21.2663 22.823 21.0512 22.9681 20.8699 23.151C20.6887 23.334 20.5449 23.5512 20.4469 23.7902C20.3488 24.0292 20.2983 24.2854 20.2983 24.5442C20.2983 24.8029 20.3488 25.0591 20.4469 25.2981C20.5449 25.5372 20.6887 25.7544 20.8699 25.9373C21.0512 26.1203 21.2663 26.2654 21.5031 26.3644C21.7399 26.4634 21.9937 26.5144 22.25 26.5144C22.7676 26.5144 23.264 26.3068 23.6301 25.9373C23.9961 25.5678 24.2017 25.0667 24.2017 24.5442C24.2017 24.0216 23.9961 23.5205 23.6301 23.151C23.264 22.7815 22.7676 22.574 22.25 22.574ZM18.625 24.5442C18.625 23.5736 19.0069 22.6429 19.6867 21.9566C20.3666 21.2703 21.2886 20.8848 22.25 20.8848C23.2114 20.8848 24.1334 21.2703 24.8133 21.9566C25.4931 22.6429 25.875 23.5736 25.875 24.5442C25.875 25.5147 25.4931 26.4455 24.8133 27.1317C24.1334 27.818 23.2114 28.2036 22.25 28.2036C21.2886 28.2036 20.3666 27.818 19.6867 27.1317C19.0069 26.4455 18.625 25.5147 18.625 24.5442ZM8.86578 6.24727C8.46298 6.24718 8.06412 6.32718 7.69196 6.48272C7.3198 6.63826 6.98164 6.86628 6.69679 7.15377C6.41194 7.44125 6.18598 7.78256 6.03181 8.15822C5.87765 8.53387 5.7983 8.9365 5.7983 9.34311C5.7983 9.99009 6.17095 10.7695 6.79735 11.5805C7.3991 12.3592 8.14005 13.0486 8.68018 13.5053C8.73374 13.5451 8.79852 13.5666 8.86505 13.5666C8.93158 13.5666 8.99636 13.5451 9.04993 13.5053C9.59005 13.0486 10.3317 12.3599 10.9335 11.5805C11.5599 10.7695 11.9325 9.99009 11.9325 9.34384C11.9325 8.52278 11.6094 7.73534 11.0343 7.15476C10.4592 6.57417 9.67913 6.24801 8.86578 6.24801M4.125 9.34311C4.125 8.07395 4.62444 6.85677 5.51343 5.95934C6.40243 5.06191 7.60818 4.55774 8.86541 4.55774C10.1226 4.55774 11.3284 5.06191 12.2174 5.95934C13.1064 6.85677 13.6058 8.07395 13.6058 9.34311C13.6058 10.5683 12.9432 11.7246 12.253 12.619C11.5425 13.5382 10.6942 14.3199 10.1084 14.8124L10.0874 14.83C9.73433 15.1081 9.29851 15.2577 8.85066 15.2544C8.40281 15.251 7.96921 15.095 7.62023 14.8117C7.03588 14.3191 6.1869 13.5382 5.47713 12.6183C4.78692 11.7239 4.125 10.5675 4.125 9.34311ZM15.2791 11.0337C15.2791 10.5668 15.6532 10.1892 16.1151 10.1892H18.3459C19.4417 10.2098 20.4857 10.6636 21.2534 11.4532C22.0211 12.2428 22.4512 13.305 22.4512 14.4114C22.4512 15.5177 22.0211 16.5799 21.2534 17.3695C20.4857 18.1591 19.4417 18.6129 18.3459 18.6335H11.6541C10.9959 18.6448 10.3685 18.9167 9.90696 19.3906C9.44545 19.8645 9.18683 20.5024 9.18683 21.1669C9.18683 21.8315 9.44545 22.4694 9.90696 22.9433C10.3685 23.4172 10.9959 23.689 11.6541 23.7003H15C15.2219 23.7003 15.4347 23.7893 15.5916 23.9477C15.7485 24.1061 15.8367 24.3209 15.8367 24.5449C15.8367 24.7689 15.7485 24.9837 15.5916 25.1421C15.4347 25.3005 15.2219 25.3895 15 25.3895H11.6541C10.5583 25.3689 9.51432 24.915 8.74659 24.1254C7.97887 23.3359 7.54875 22.2737 7.54875 21.1673C7.54875 20.0609 7.97887 18.9987 8.74659 18.2092C9.51432 17.4196 10.5583 16.9657 11.6541 16.9451H18.3459C19.0116 16.9451 19.65 16.6782 20.1207 16.203C20.5914 15.7278 20.8558 15.0833 20.8558 14.4114C20.8558 13.7394 20.5914 13.0949 20.1207 12.6197C19.65 12.1445 19.0116 11.8776 18.3459 11.8776H16.1165C15.8947 11.8776 15.682 11.7887 15.5252 11.6305C15.3683 11.4723 15.2793 11.2576 15.2791 11.0337Z" fill="#10B982"/>
<path d="M8.86602 10.4697C9.16187 10.4697 9.44561 10.3511 9.65481 10.1399C9.86402 9.92873 9.98155 9.6423 9.98155 9.34364C9.98155 9.04497 9.86402 8.75854 9.65481 8.54736C9.44561 8.33617 9.16187 8.21753 8.86602 8.21753C8.57016 8.21753 8.28642 8.33617 8.07722 8.54736C7.86802 8.75854 7.75049 9.04497 7.75049 9.34364C7.75049 9.6423 7.86802 9.92873 8.07722 10.1399C8.28642 10.3511 8.57016 10.4697 8.86602 10.4697Z" fill="#10B982"/>
</svg>
